<svg width="283" height="125" viewBox="0 0 283 125" fill="none" xmlns="http://www.w3.org/2000/svg">
<path d="M81.1273 62.7977C77.101 62.7977 73.493 62.1776 70.3033 60.9376C67.1137 59.6975 64.5515 57.8622 62.6167 55.4316C60.7343 53.001 59.7408 50.0745 59.6362 46.6518H73.9113C74.1205 48.5864 74.8264 50.0745 76.0291 51.1161C77.2317 52.1082 78.8004 52.6042 80.7351 52.6042C82.7222 52.6042 84.2908 52.1826 85.4412 51.3393C86.5916 50.4465 87.1668 49.2312 87.1668 47.6935C87.1668 46.4038 86.6962 45.3373 85.755 44.4941C84.866 43.6508 83.7418 42.9564 82.3823 42.4108C81.075 41.8651 79.1926 41.2451 76.735 40.5506C73.1793 39.509 70.2772 38.4673 68.0287 37.4256C65.7803 36.384 63.8456 34.8463 62.2246 32.8125C60.6036 30.7788 59.7931 28.125 59.7931 24.8512C59.7931 19.9901 61.6494 16.1955 65.362 13.4673C69.0745 10.6895 73.9113 9.30063 79.8724 9.30063C85.938 9.30063 90.8271 10.6895 94.5396 13.4673C98.2522 16.1955 100.239 20.0149 100.501 24.9256H85.9903C85.8857 23.2391 85.2321 21.9246 84.0294 20.9822C82.8267 19.9901 81.2842 19.4941 79.4018 19.4941C77.7808 19.4941 76.4735 19.9157 75.48 20.759C74.4865 21.5526 73.9898 22.7183 73.9898 24.256C73.9898 25.9425 74.8264 27.257 76.4997 28.1994C78.1729 29.1419 80.7874 30.1588 84.3431 31.25C87.8988 32.3909 90.7748 33.4822 92.9709 34.5239C95.2194 35.5655 97.1541 37.0784 98.7751 39.0625C100.396 41.0467 101.207 43.6012 101.207 46.7262C101.207 49.7024 100.396 52.4058 98.7751 54.8364C97.2064 57.2669 94.9057 59.2014 91.8729 60.6399C88.8401 62.0784 85.2582 62.7977 81.1273 62.7977Z" fill="#F4F4F4"/>
<path d="M32.1827 20.238V30.8035H50.1442V40.625H32.1827V52.0833H52.4973V62.2768H18.7704V10.0446H52.4973V20.238H32.1827Z" fill="#F4F4F4"/>
<path d="M200.294 89.9921C201.993 89.9921 203.655 90.4962 205.068 91.4405C206.482 92.3849 207.583 93.7271 208.234 95.2975C208.884 96.8679 209.054 98.5959 208.723 100.263C208.391 101.93 207.573 103.461 206.371 104.663C205.169 105.865 203.637 106.684 201.97 107.015C200.303 107.347 198.575 107.177 197.005 106.526C195.434 105.876 194.092 104.774 193.148 103.361C192.203 101.948 191.699 100.286 191.699 98.5864C191.702 96.3078 192.608 94.1232 194.219 92.5119C195.83 90.9007 198.015 89.9945 200.294 89.9921ZM200.294 104.316C201.427 104.316 202.535 103.98 203.477 103.35C204.419 102.721 205.153 101.826 205.587 100.779C206.021 99.732 206.134 98.58 205.913 97.4686C205.692 96.3572 205.146 95.3363 204.345 94.535C203.544 93.7337 202.523 93.188 201.411 92.967C200.3 92.7459 199.148 92.8594 198.101 93.293C197.054 93.7267 196.159 94.461 195.53 95.4032C194.9 96.3454 194.564 97.4532 194.564 98.5864C194.564 100.106 195.168 101.563 196.242 102.638C197.317 103.712 198.774 104.316 200.294 104.316ZM184.538 98.9731C184.53 98.7153 184.53 98.4575 184.538 98.1996L181.866 94.8622C181.726 94.687 181.629 94.4813 181.583 94.2617C181.537 94.0422 181.543 93.8149 181.601 93.5981C182.039 91.952 182.694 90.3714 183.549 88.8982C183.661 88.7054 183.817 88.5414 184.003 88.4192C184.19 88.297 184.402 88.2201 184.624 88.1945L188.871 87.7218C189.047 87.5356 189.226 87.3566 189.408 87.1847L189.909 82.927C189.935 82.7053 190.012 82.4928 190.134 82.3063C190.257 82.1198 190.421 81.9644 190.614 81.8527C192.088 80.9992 193.669 80.3448 195.314 79.9065C195.531 79.8488 195.759 79.8429 195.978 79.8892C196.198 79.9356 196.403 80.0329 196.578 80.1732L199.907 82.8303H200.68L204.018 80.1643C204.193 80.0242 204.399 79.9273 204.618 79.8812C204.838 79.8352 205.065 79.8414 205.282 79.8993C206.928 80.338 208.508 80.9931 209.982 81.8473C210.175 81.9593 210.339 82.1147 210.461 82.3012C210.583 82.4877 210.66 82.7001 210.686 82.9216L211.158 87.1757C211.344 87.3536 211.523 87.5326 211.695 87.7129L215.953 88.2017C216.175 88.2275 216.387 88.3047 216.574 88.4271C216.76 88.5496 216.916 88.714 217.027 88.9071C217.881 90.381 218.535 91.9614 218.974 93.6071C219.031 93.824 219.037 94.0513 218.991 94.2709C218.944 94.4905 218.847 94.6961 218.707 94.8712L216.05 98.1996V98.9731L218.716 102.311C218.856 102.486 218.953 102.691 218.999 102.911C219.045 103.131 219.039 103.358 218.981 103.575C218.543 105.221 217.888 106.801 217.033 108.275C216.921 108.467 216.765 108.631 216.579 108.754C216.392 108.876 216.18 108.953 215.958 108.978L211.711 109.451C211.534 109.637 211.355 109.816 211.174 109.988L210.678 114.246C210.653 114.467 210.575 114.68 210.453 114.866C210.33 115.053 210.166 115.208 209.973 115.32C208.499 116.173 206.919 116.828 205.273 117.266C205.056 117.324 204.829 117.33 204.609 117.284C204.39 117.237 204.184 117.14 204.009 117L200.68 114.342C200.423 114.35 200.165 114.35 199.907 114.342L196.57 117.014C196.394 117.154 196.189 117.251 195.969 117.297C195.749 117.343 195.522 117.337 195.305 117.279C193.659 116.841 192.079 116.186 190.605 115.331C190.413 115.219 190.249 115.063 190.127 114.877C190.004 114.69 189.927 114.478 189.902 114.257L189.429 110.01C189.243 109.833 189.064 109.654 188.892 109.472L184.634 108.971C184.413 108.945 184.2 108.868 184.014 108.746C183.827 108.623 183.672 108.459 183.56 108.266C182.707 106.792 182.052 105.211 181.614 103.566C181.556 103.349 181.55 103.121 181.597 102.902C181.643 102.682 181.74 102.477 181.881 102.302L184.538 98.9731ZM187.42 97.8093C187.39 98.3269 187.39 98.8458 187.42 99.3634C187.442 99.7178 187.331 100.067 187.109 100.345L184.568 103.519C184.86 104.446 185.233 105.344 185.683 106.205L189.73 106.663C190.082 106.702 190.408 106.871 190.643 107.136C190.988 107.523 191.355 107.891 191.742 108.235C192.008 108.471 192.176 108.796 192.215 109.148L192.665 113.191C193.525 113.642 194.424 114.015 195.35 114.307L198.526 111.766C198.781 111.563 199.096 111.452 199.422 111.453H199.508C200.025 111.483 200.544 111.483 201.062 111.453C201.416 111.431 201.766 111.542 202.043 111.764L205.226 114.307C206.153 114.015 207.052 113.642 207.912 113.191L208.37 109.15C208.41 108.798 208.578 108.472 208.843 108.237C209.231 107.892 209.598 107.525 209.942 107.138C210.178 106.872 210.503 106.704 210.856 106.665L214.899 106.214C215.349 105.353 215.723 104.455 216.014 103.528L213.473 100.352C213.251 100.075 213.14 99.725 213.162 99.3706C213.192 98.853 213.192 98.3341 213.162 97.8165C213.14 97.4621 213.251 97.1124 213.473 96.8353L216.014 93.6536C215.722 92.7271 215.349 91.8284 214.899 90.9679L210.857 90.5096C210.505 90.4705 210.18 90.302 209.944 90.0369C209.6 89.6492 209.233 89.2822 208.845 88.9376C208.579 88.702 208.41 88.3759 208.37 88.0226L207.921 83.9815C207.061 83.5307 206.162 83.1574 205.235 82.8661L202.059 85.4068C201.782 85.6286 201.432 85.7396 201.078 85.7183C200.56 85.6879 200.041 85.6879 199.524 85.7183C199.169 85.7396 198.82 85.6286 198.543 85.4068L195.361 82.8661C194.434 83.1576 193.536 83.5309 192.675 83.9815L192.217 88.0226C192.178 88.375 192.009 88.7004 191.744 88.9358C191.357 89.2804 190.989 89.6475 190.645 90.0351C190.409 90.3003 190.084 90.4687 189.732 90.5078L185.689 90.9572C185.238 91.8175 184.865 92.7163 184.573 93.6429L187.114 96.8192C187.338 97.0987 187.449 97.4519 187.426 97.8093H187.42Z" fill="#F4F4F4"/>
<path d="M265.657 124.628L247.147 101.563V124.628H233.734V72.3959H247.147V95.3126L265.5 72.3959H281.266L259.931 97.9911L282.05 124.628H265.657Z" fill="#F4F4F4"/>
<path d="M91.9489 122.917L80.4974 103.199H77.2816V122.917H63.8693V70.6846H86.38C90.72 70.6846 94.4065 71.4038 97.4393 72.8423C100.524 74.2808 102.825 76.2649 104.342 78.7947C105.858 81.2749 106.616 84.0526 106.616 87.128C106.616 90.6003 105.57 93.7005 103.479 96.4286C101.439 99.1568 98.4066 101.091 94.3803 102.232L107.087 122.917H91.9489ZM77.2816 94.1965H85.5957C88.0533 94.1965 89.8834 93.6261 91.0861 92.4852C92.341 91.3443 92.9685 89.7322 92.9685 87.6489C92.9685 85.6647 92.341 84.1022 91.0861 82.9614C89.8834 81.8205 88.0533 81.2501 85.5957 81.2501H77.2816V94.1965Z" fill="#F4F4F4"/>
<path d="M171.715 98.4375C171.715 93.2788 172.891 88.6905 175.244 84.6726C177.597 80.6051 180.866 77.4553 185.049 75.2232C189.284 72.9414 194.069 71.8006 199.402 71.8006C205.938 71.8006 211.533 73.4375 216.187 76.7113C220.841 79.9851 223.952 84.4494 225.521 90.1042H210.775C209.677 87.9216 208.109 86.2599 206.069 85.119C204.082 83.9782 201.808 83.4077 199.245 83.4077C195.115 83.4077 191.768 84.7718 189.206 87.5C186.644 90.2282 185.362 93.874 185.362 98.4375C185.362 103.001 186.644 106.647 189.206 109.375C191.768 112.103 195.115 113.467 199.245 113.467C201.808 113.467 204.082 112.897 206.069 111.756C208.109 110.615 209.677 108.953 210.775 106.771H225.521C223.952 112.426 220.841 116.89 216.187 120.164C211.533 123.388 205.938 125 199.402 125C194.069 125 189.284 123.884 185.049 121.652C180.866 119.37 177.597 116.22 175.244 112.202C172.891 108.185 171.715 103.596 171.715 98.4375Z" fill="#F4F4F4"/>
<path d="M150.435 115.402H129.885L126.591 124.628H112.551L132.474 72.3959H148.004L167.926 124.628H153.73L150.435 115.402ZM146.984 105.58L140.16 86.4584L133.415 105.58H146.984Z" fill="#F4F4F4"/>
<g clip-path="url(#clip0_45_75)">
<path fill-rule="evenodd" clip-rule="evenodd" d="M114.723 28.2888C113.487 27.0492 112.558 25.5373 112.012 23.8743C111.465 22.2114 111.316 20.4435 111.576 18.7124C111.836 16.9813 112.497 15.3352 113.508 13.9059C114.518 12.4766 115.85 11.3038 117.395 10.4816C117.639 10.3516 117.913 10.287 118.189 10.2942C118.466 10.3013 118.736 10.38 118.973 10.5226C119.21 10.6651 119.406 10.8667 119.542 11.1076C119.678 11.3484 119.749 11.6205 119.749 11.8971L119.73 21.9184C120.569 22.5652 121.598 22.9166 122.657 22.9179C123.716 22.9192 124.746 22.5703 125.587 21.9256L125.603 11.9072C125.603 11.6306 125.675 11.3588 125.812 11.1184C125.949 10.878 126.146 10.6772 126.383 10.5354C126.621 10.3937 126.891 10.3159 127.168 10.3097C127.444 10.3035 127.718 10.369 127.961 10.4999C129.575 11.3656 130.952 12.6135 131.972 14.1345C132.992 15.6555 133.623 17.4033 133.811 19.2249C133.999 21.0465 133.738 22.8864 133.051 24.5837C132.363 26.281 131.27 27.7839 129.867 28.9611C128.199 30.365 127.191 31.9301 127.331 33.399L129.607 57.3055C129.697 58.2815 129.583 59.2657 129.271 60.195C128.959 61.1243 128.457 61.9782 127.796 62.7021C127.135 63.4259 126.33 64.0037 125.432 64.3986C124.535 64.7934 123.566 64.9965 122.585 64.9949C121.605 64.9933 120.636 64.7871 119.74 64.3893C118.844 63.9916 118.041 63.4111 117.382 62.6851C116.724 61.9591 116.224 61.1036 115.915 60.1733C115.606 59.243 115.495 58.2585 115.589 57.2827L117.944 33.3843C118.087 31.9158 117.087 30.3473 115.423 28.9376C115.18 28.7319 114.946 28.5154 114.723 28.2888ZM121.45 58.8793C121.15 58.5785 120.982 58.171 120.983 57.7464C120.984 57.3218 121.153 56.9148 121.454 56.6151L121.466 56.6031C121.767 56.3033 122.174 56.1353 122.599 56.1361C123.024 56.1368 123.431 56.3062 123.73 56.607L123.742 56.6191C124.042 56.9198 124.21 57.3274 124.209 57.752C124.209 58.1766 124.039 58.5835 123.738 58.8833L123.726 58.8953C123.426 59.1951 123.018 59.363 122.593 59.3623C122.169 59.3616 121.762 59.1922 121.462 58.8914L121.45 58.8793Z" fill="#F4F4F4"/>
</g>
<path fill-rule="evenodd" clip-rule="evenodd" d="M17.1881 69.9573C16.4283 69.9573 15.6997 70.2591 15.1624 70.7964C14.6252 71.3336 14.3234 72.0623 14.3234 72.822V84.281C14.3234 85.0408 14.6252 85.7695 15.1624 86.3067C15.6997 86.8439 16.4283 87.1458 17.1881 87.1458H28.6471V121.523C28.6471 122.282 28.9489 123.011 29.4861 123.548C30.0234 124.086 30.752 124.387 31.5118 124.387H40.1061C40.8658 124.387 41.5945 124.086 42.1317 123.548C42.669 123.011 42.9708 122.282 42.9708 121.523V87.1458H54.4298C55.1895 87.1458 55.9182 86.8439 56.4555 86.3067C56.9927 85.7695 57.2945 85.0408 57.2945 84.281V81.4163C57.2943 80.6566 56.9924 79.928 56.4551 79.3909L54.573 77.5088C52.1788 75.1146 49.3366 73.2155 46.2084 71.9198C43.0803 70.6241 39.7276 69.9573 36.3418 69.9573H17.1881Z" fill="#F4F4F4"/>
<defs>
<clipPath id="clip0_45_75">
<rect width="51.2331" height="51.2331" fill="white" transform="translate(86.4064 36.1644) rotate(-44.9007)"/>
</clipPath>
</defs>
</svg>
